<svg id="Ñëîé_1" data-name="Ñëîé 1" xmlns="http://www.w3.org/2000/svg" xmlns:xlink="http://www.w3.org/1999/xlink" viewBox="0 0 192.72 355.59"><defs><linearGradient id="linear-gradient" x1="304.1" y1="87.14" x2="294.86" y2="456.58" gradientUnits="userSpaceOnUse"><stop offset="0" stop-color="#4fa8f7"/><stop offset="0.1" stop-color="#25a7f8"/><stop offset="0.21" stop-color="#249ef4"/><stop offset="0.32" stop-color="#2095f2"/><stop offset="0.43" stop-color="#1e8dee"/><stop offset="0.56" stop-color="#1c86ea"/><stop offset="0.67" stop-color="#177be7"/><stop offset="0.9" stop-color="#2a64da"/><stop offset="0.99" stop-color="#185bb0"/></linearGradient></defs><path d="M364.34,94.85l-2.26-.14c-4.24-.27-8.5-.46-12.93-.48a114.75,114.75,0,0,0-16.14,1c-14,1.86-27.82,6.87-39.14,15.65a73.86,73.86,0,0,0-23.39,31.83,107.25,107.25,0,0,0-6.88,36.17c0,.93,0,1.86,0,2.78q-.29,11.75-.56,23.47t-.58,23.47l-27.92-.11-27.91-.12q-.3,12-.59,24-.48,19.95-1,39.92l15.58.06,15.79.07,12.13.05,12.33,0q-.71,29-1.41,58-1.17,48.3-2.35,96.58a218.57,218.57,0,0,0,34.2,2.83,222.21,222.21,0,0,0,34.44-2.55q.7-29,1.42-57.94.46-19.32.94-38.64.69-29,1.41-57.94l14.19.05,13.9.06,11.2.05,11.82,0q5.72-31.9,11.39-63.84l-18.52-.07L354.8,229l-11.6,0c-4,0-8.09,0-12.13-.06q.17-7.34.35-14.66l.36-14.65c.08-3.25.15-6.52.24-9.77,0-.51,0-1,0-1.52a50.63,50.63,0,0,1,1.29-10.61c1.61-6.79,5.26-13.3,10.91-17.55,6.14-4.74,13.95-6.64,21.49-6.93l2.64-.05c3.44,0,6.88,0,10.68,0l2.95,0,3.11,0,3.24,0h8.07q.13-5.09.25-10.17.3-11.87.57-23.73.25-10.16.52-20.34C387,97.09,376,95.73,364.34,94.85Z" transform="translate(-205.03 -94.23)" style="fill:url(#linear-gradient)"/></svg>