<svg id="Ñëîé_1" data-name="Ñëîé 1" xmlns="http://www.w3.org/2000/svg" viewBox="0 0 355.54 357.04"><path d="M4610.42,1175.7a183.26,183.26,0,0,1,92.3-.31c28.06,7.14,54.35,20.86,75.49,40.64-16.79,17-33.8,33.84-51.17,50.24-22.51-21.44-55.78-30.93-86.55-25.55-39.57,5.8-73.65,35.45-86.22,72.55-19.79-15.14-39.83-30-59.23-45.58a180.48,180.48,0,0,1,59.23-66.64,177.15,177.15,0,0,1,56.15-25.35Z" transform="translate(-4475.64 -1169.64)" style="fill:#ea4335"/><path d="M4494.91,1428.29a176.41,176.41,0,0,1,.13-160.6c19.4,15.61,39.44,30.44,59.23,45.58-8.17,22.49-7.84,47.4-.13,70q-29.64,22.49-59.23,45.06Z" transform="translate(-4475.64 -1169.64)" style="fill:#fbbc05"/><path d="M4656.92,1314.56q35.09,0,70.16,0,50.4,0,100.78,0c5.34,30.27,4.41,62.29-4,92.08a166.19,166.19,0,0,1-29.78,59c-5.47,6.08-10.86,12.23-16.71,17.93-19.21-14.43-38.41-28.9-57.09-44,18.1-13.41,31.2-32.57,36.07-54.45-6.55-1.56-13.33-.9-20-1-26.36,0-52.72.07-79.09,0-.25-23.23.4-46.46-.38-69.66Z" transform="translate(-4475.64 -1169.64)" style="fill:#4285f4"/><path d="M4554.14,1383.23c11.32,31.82,37.58,58.29,70.37,68.73,31.43,9.67,67.9,5.78,95.2-12.79l.6.49c18.68,15.08,37.88,29.55,57.09,44-35.8,31.83-85,46-132.8,42.53-32-2.3-63.38-12.51-89.68-30.58-25.61-16.71-46.2-40.41-60-67.3q29.57-22.61,59.23-45.06Z" transform="translate(-4475.64 -1169.64)" style="fill:#34a853"/></svg>